<svg xmlns="http://www.w3.org/2000/svg" viewBox="0 0 900 1100" width="900" height="1100" role="img">
  <defs>
    <linearGradient id="s" x1="0" y1="0" x2="1" y2="1">
      <stop offset="0" stop-color="#1a1815"/><stop offset="1" stop-color="#2a2621"/>
    </linearGradient>
  </defs>
  <rect width="900" height="1100" fill="url(#s)"/>
  <circle cx="450" cy="500" r="340" fill="#d4af37" opacity="0.07"/>
   <g transform="translate(180,300)">
     <rect width="540" height="420" rx="24" fill="#2a2621" stroke="#d4af37" stroke-opacity="0.45" stroke-width="2"/>
     <rect x="0" y="0" width="540" height="64" rx="24" fill="#d4af37" opacity="0.18"/>
     <rect x="28" y="96" width="76" height="60" rx="10" fill="none" fill-opacity="0" stroke="#d4af37" stroke-opacity="0.28" stroke-width="2"/>
     <rect x="128" y="96" width="76" height="60" rx="10" fill="#e3c46a" fill-opacity="0.85" stroke="#d4af37" stroke-opacity="0" stroke-width="2"/>
     <rect x="228" y="96" width="76" height="60" rx="10" fill="none" fill-opacity="0" stroke="#d4af37" stroke-opacity="0.28" stroke-width="2"/>
     <rect x="328" y="96" width="76" height="60" rx="10" fill="#e3c46a" fill-opacity="0.85" stroke="#d4af37" stroke-opacity="0" stroke-width="2"/>
     <rect x="428" y="96" width="76" height="60" rx="10" fill="none" fill-opacity="0" stroke="#d4af37" stroke-opacity="0.28" stroke-width="2"/>
     <rect x="28" y="178" width="76" height="60" rx="10" fill="none" fill-opacity="0" stroke="#d4af37" stroke-opacity="0.28" stroke-width="2"/>
     <rect x="128" y="178" width="76" height="60" rx="10" fill="#e3c46a" fill-opacity="0.85" stroke="#d4af37" stroke-opacity="0" stroke-width="2"/>
     <rect x="228" y="178" width="76" height="60" rx="10" fill="none" fill-opacity="0" stroke="#d4af37" stroke-opacity="0.28" stroke-width="2"/>
     <rect x="328" y="178" width="76" height="60" rx="10" fill="none" fill-opacity="0" stroke="#d4af37" stroke-opacity="0.28" stroke-width="2"/>
     <rect x="428" y="178" width="76" height="60" rx="10" fill="#e3c46a" fill-opacity="0.85" stroke="#d4af37" stroke-opacity="0" stroke-width="2"/>
     <rect x="28" y="260" width="76" height="60" rx="10" fill="none" fill-opacity="0" stroke="#d4af37" stroke-opacity="0.28" stroke-width="2"/>
     <rect x="128" y="260" width="76" height="60" rx="10" fill="none" fill-opacity="0" stroke="#d4af37" stroke-opacity="0.28" stroke-width="2"/>
     <rect x="228" y="260" width="76" height="60" rx="10" fill="#e3c46a" fill-opacity="0.85" stroke="#d4af37" stroke-opacity="0" stroke-width="2"/>
     <rect x="328" y="260" width="76" height="60" rx="10" fill="none" fill-opacity="0" stroke="#d4af37" stroke-opacity="0.28" stroke-width="2"/>
     <rect x="428" y="260" width="76" height="60" rx="10" fill="#e3c46a" fill-opacity="0.85" stroke="#d4af37" stroke-opacity="0" stroke-width="2"/>
     <rect x="28" y="342" width="76" height="60" rx="10" fill="none" fill-opacity="0" stroke="#d4af37" stroke-opacity="0.28" stroke-width="2"/>
     <rect x="128" y="342" width="76" height="60" rx="10" fill="none" fill-opacity="0" stroke="#d4af37" stroke-opacity="0.28" stroke-width="2"/>
     <rect x="228" y="342" width="76" height="60" rx="10" fill="#e3c46a" fill-opacity="0.85" stroke="#d4af37" stroke-opacity="0" stroke-width="2"/>
     <rect x="328" y="342" width="76" height="60" rx="10" fill="none" fill-opacity="0" stroke="#d4af37" stroke-opacity="0.28" stroke-width="2"/>
     <rect x="428" y="342" width="76" height="60" rx="10" fill="none" fill-opacity="0" stroke="#d4af37" stroke-opacity="0.28" stroke-width="2"/>
   </g>
   <text x="450" y="840" text-anchor="middle" font-family="'Tajawal','Cairo','Segoe UI',sans-serif" font-size="40" font-weight="700" fill="#f8f7f4">تقويم محتوى معتمد</text>
   <text x="450" y="890" text-anchor="middle" font-family="'Tajawal','Cairo','Segoe UI',sans-serif" font-size="24" fill="#e3c46a">قبل بداية كل شهر</text>
</svg>
